# xmcd
#
# Track frame offsets:
# 150
# 1464
# 21565
# 35912
# 47622
# 66515
# 85151
# 100351
# 111072
# 128781
# 138358
#
# Disc length: 1953 seconds
#
#
# Revision: 0
# Processed by: cddbd v1.5.2PL0 Copyright (c) Steve Scherf et al.
# Submitted via: Nero 7, 11, 10, 0 
#
DISCID=9a079f0b
DTITLE=Little Andrew - Bloodrush
DYEAR=2012
DGENRE=Blues
TTITLE0=Intro
TTITLE1=Bloodrush
TTITLE2=Your Best Hand
TTITLE3=I'm Back
TTITLE4=Mary Lou
TTITLE5=Fighting For A Living
TTITLE6=She's So Fine
TTITLE7=Don't Know You
TTITLE8=Lucky Man
TTITLE9=Secret Love
TTITLE10=Why?
EXTD=
EXTT0=Intro
EXTT1=Bloodrush
EXTT2=Your Best Hand
EXTT3=I'm Back
EXTT4=Mary Lou
EXTT5=Fighting For A Living
EXTT6=She's So Fine
EXTT7=Don't Know You
EXTT8=Lucky Man
EXTT9=Secret Love
EXTT10=Why?
PLAYORDER=
